<svg width="100%" height="100%" id="desktop" viewBox="0 0 1334 750"
    xmlns="http://www.w3.org/2000/svg"
    xmlns:xlink="http://www.w3.org/1999/xlink">
    <g id="loop" transform="translate(0.000000, 1.000000)" stroke="black" fill="red" fill-rule="evenodd">
        <g id="section-5" class="section items-six-qty" transform="translate(354.382682, 285.391000)">
            <path d="M9.8548044,0.109 L227.657989,0.109 C188.227613,69.1435254 262.373351,192.174395 307.668923,257.460061 L237.273005,436.651823 C111.644318,386.944138 -40.3980745,238.48508 9.8548044,0.109 Z" id="section-5-outer" class="body" stroke="#ED1B52" fill="#FFFFFF"></path>
            <path d="M226.489959,0 L306.477318,0 C233.408318,59.834731 248.753925,161.82 330.306416,200.431642 L307.584949,257.52613 C176.55665,198.999704 182.922983,64.9771163 226.489959,0 Z" id="section-5-inner" class="title" stroke="#FFFFFF" fill="#ED1B52"></path>
            <text x="112" y="145" id="section-5-outer-text-six-qty" class="text-body" dominant-baseline="middle" text-anchor="middle">
                <tspan x="210" dy="1.2em">Configure the Quality</tspan>
                <tspan x="210" dy="1.2em">Assurance system and</tspan>
                <tspan x="210" dy="1.2em">automating routine quality</tspan>
                <tspan x="210" dy="1.2em">control procedures</tspan>
            </text>
            <text x="0" y="0" id="section-5-inner-text-six-qty" class="text-title" dominant-baseline="middle" text-anchor="middle" transform="translate(240, 130) rotate(270)">Test</text>
        </g>
        <g id="section-4" class="section items-six-qty" transform="translate(592.539023, 392.745599)">
            <path d="M308.212771,10.1071513 L505.185882,41.077656 C459.054716,290.2722 208.015734,410.406212 0,329.640471 L70.3315015,150.686745 C176.205534,189.896293 287.925468,125.653754 308.212771,10.1071513 Z" id="section-4-outer" class="body" stroke="#ED1B52" fill="#FFFFFF"></path>
            <path d="M249.31014,0 L308.440525,10.2026854 C292.08952,123.96057 171.49748,193.04888 70.3315015,150.57064 L93.0430228,93.4469506 C174.743822,120.032074 240.417126,68.3650012 249.31014,0 Z" id="section-4-inner" class="title" stroke="#FFFFFF" fill="#ED1B52"></path>
            <text x="112" y="135" id="section-4-outer-text-six-qty" class="text-body" dominant-baseline="middle" text-anchor="middle">
                <tspan x="195" dy="1.2em">Select a suitable</tspan>
                <tspan x="195" dy="1.2em">tech architecture, building</tspan>
                <tspan x="195" dy="1.2em">the app and</tspan>
                <tspan x="195" dy="1.2em">infrastructure to support</tspan>
                <tspan x="195" dy="1.2em">it</tspan>
            </text>
            <text x="0" y="0" id="section-4-inner-text-six-qty" class="text-title" dominant-baseline="middle" text-anchor="middle" transform="translate(216, 105) rotate(325)">Develop</text>
        </g>
        <g id="section-3" class="section items-six-qty" transform="translate(727.502709, 0.000000)">
            <path d="M0,0 L0,206.463764 C112.935536,212.316849 182.215249,300.301697 173.121865,401.853964 L370.381111,432.848464 C408.414428,186.046419 211.971291,0.501186889 0,0 Z" id="section-3-outer" class="body" stroke="#ED1B52" fill="#FFFFFF"></path>
            <path d="M1.13686838e-13,206.463764 L1.13686838e-13,264.488459 C58.6653789,263.522393 123.045607,318.648656 114.444581,391.770526 L173.617094,401.958982 C187.566794,308.859764 114.039224,210.226764 1.13686838e-13,206.463764 Z" id="section-3-inner" class="title" stroke="#FFFFFF" fill="#ED1B52"></path>
            <text x="112" y="145" id="section-3-outer-text-six-qty" class="text-body" dominant-baseline="middle" text-anchor="middle">
                <tspan x="190" dy="1.2em">Develop the UI/UX</tspan>
                <tspan x="190" dy="1.2em">designs and user</tspan>
                <tspan x="190" dy="1.2em">journey and validating</tspan>
                <tspan x="190" dy="1.2em">them with the</tspan>
                <tspan x="190" dy="1.2em">target audience</tspan>
            </text>
            <text x="0" y="0" id="section-3-inner-text-six-qty" class="text-title" dominant-baseline="middle" text-anchor="middle" transform="translate(115, 300) rotate(54)">Design</text>
        </g>
        <g id="section-5" class="section items-eight-qty" transform="translate(436.886407, 448.902345)">
            <path d="M337.474089,99.1242478 C262.877718,115.81039 201.029415,96.4768869 152.466413,38.3621533 L0,160.069622 C93.947461,278.129333 252.617161,325.562457 390.680208,284.809832 L337.474089,99.1242478 Z" id="section-5-outer" class="body" stroke="#ED1B52" fill="#FFFFFF"></path>
            <path d="M323.170055,39.6941041 L337.474413,99.2337787 C267.502816,118.975187 198.911485,96.1121009 152.427593,38.293551 L200.307739,5.68434189e-14 C229.641118,38.1630719 272.445166,50.6904127 323.170055,39.6941041 Z" id="section-5-inner" class="title" stroke="#FFFFFF" fill="#ED1B52"></path>
            <text x="112" y="125" id="section-5-outer-text" class="text-body" dominant-baseline="middle" text-anchor="middle">
                <tspan x="210" dy="1.2em">Configure the Quality</tspan>
                <tspan x="210" dy="1.2em">Assurance system and</tspan>
                <tspan x="210" dy="1.2em">automating routine quality</tspan>
                <tspan x="210" dy="1.2em">control procedures</tspan>
            </text>
            <text x="0" y="0" id="section-5-inner-text" class="text-title" dominant-baseline="middle" text-anchor="middle" transform="translate(246, 65) rotate(18)">Test</text>
        </g>
        <g id="section-0" class="section" transform="translate(0.000000, 0.000000)">
            <rect id="section-0-outer" class="body" stroke="#ED1B52" fill="#FFFFFF" x="0.5" y="0.5" width="244" height="207"></rect>
            <rect id="section-0-inner&quot;" class="title" stroke="#FFFFFF" fill="#ED1B52" x="0.5" y="206.5" width="244" height="58"></rect>
            <text x="121" y="35" id="section-0-outer-text" class="text-body" dominant-baseline="middle" text-anchor="middle">
                <tspan x="115" dy="1.2em">Study your users'</tspan>
                <tspan x="115" dy="1.2em">wishes and expectations,</tspan>
                <tspan x="115" dy="1.2em">do market research</tspan>
                <tspan x="115" dy="1.2em">and gap analysis</tspan>
            </text>
            <text x="121" y="238" id="section-0-inner-text" class="text-title" dominant-baseline="middle" text-anchor="middle">Ask &amp; Listen</text>
        </g>
        <g id="section-4" class="section items-eight-qty" transform="translate(761.005727, 337.389848)">
            <path d="M140.109159,21.0673187 L339.422157,-5.68434189e-14 C356.848596,168.314 256.998747,341.276196 67.485747,396.048199 L14.2560309,210.181918 C101.597452,182.034296 150.292809,104.233535 140.109159,21.0673187 Z" id="section-4-outer" class="body" stroke="#ED1B52" fill="#FFFFFF"></path>
            <path d="M80.569665,27.0389464 L140.109159,21.0673187 C151.067738,105.582875 101.065243,181.860085 14.2804251,210.463085 L0,150.929528 C59.3139707,129.472585 80.569665,89.3365292 80.569665,27.0389464 Z" id="section-4-inner" class="title" stroke="#FFFFFF" fill="#ED1B52"></path>
            <text x="112" y="145" id="section-4-outer-text" class="text-body" dominant-baseline="middle" text-anchor="middle">
                <tspan x="195" dy="1.2em">Select a suitable</tspan>
                <tspan x="195" dy="1.2em">tech architecture, building</tspan>
                <tspan x="195" dy="1.2em">the app and</tspan>
                <tspan x="195" dy="1.2em">infrastructure to support</tspan>
                <tspan x="195" dy="1.2em">it</tspan>
            </text>
            <text x="0" y="0" id="section-4-inner-text" class="text-title" dominant-baseline="middle" text-anchor="middle" transform="rotate(-58, 155, -12)">Develop</text>
        </g>
        <g id="section-1" class="section" transform="translate(245.000000, 0.000000)">
            <rect id="section-1-outer" class="body" stroke="#ED1B52" fill="#FFFFFF" x="0.5" y="0.5" width="243" height="207"></rect>
            <rect id="section-1-inner" class="title" stroke="#FFFFFF" fill="#ED1B52" x="0.5" y="206.5" width="243" height="58"></rect>
            <text x="121.5" y="35" id="section-1-outer-text" class="text-body" dominant-baseline="middle" text-anchor="middle">
                <tspan x="115" dy="1.2em">Refine and prioritize</tspan>
                <tspan x="115" dy="1.2em">the features against</tspan>
                <tspan x="115" dy="1.2em">the business goals</tspan>
                <tspan x="115" dy="1.2em">and market capabilities</tspan>
            </text>
            <text x="121" y="238" id="section-1-inner-text" class="text-title" dominant-baseline="middle" text-anchor="middle">Analyse &amp; Refine</text>
        </g>
        <g id="section-7" class="section" transform="translate(727.000000, 0.000000)" stroke="#ED1B52">
            <line x1="371.5" y1="0.5" x2="0.5" y2="0.5" id="Line-2" stroke-linecap="square"></line>
            <line x1="371.5" y1="263.5" x2="359.5" y2="263.5" id="Line" fill="#ED1B52" stroke-linecap="square"></line>
            <rect id="section-7-outer" class="body" fill="#FFFFFF" x="372.5" y="0.5" width="234" height="207"></rect>
            <rect id="section-7-inner" class="title" fill="#ED1B52" x="372.5" y="206.5" width="234" height="57"></rect>
            <text x="0" y="35" id="section-7-outer-text" class="text-body" dominant-baseline="middle" text-anchor="middle" stroke="none">
                <tspan x="490" dy="1.2em">Scaling infrastructure, staffing,</tspan>
                <tspan x="490" dy="1.2em">and training teams</tspan>
                <tspan x="490" dy="1.2em">to match the</tspan>
                <tspan x="490" dy="1.2em">business expansion goals</tspan>
            </text>
            <text x="490" y="238" id="section-7-inner-text" class="text-title" dominant-baseline="middle" text-anchor="middle" stroke="none">Scale &amp; Grow</text>
        </g>
        <g id="section-6" class="section items-eight-qty" transform="translate(353.641366, 285.391000)">
            <path d="M10.5961202,0.109 L228.399305,0.109 C188.968929,69.1435254 189.863567,135.763812 235.159945,201.049478 L82.6357031,322.816405 C8.85323584,230.685 -16.563351,114.311 10.5961202,0.109 Z" id="section-6-outer" class="body" stroke="#ED1B52" fill="#FFFFFF"></path>
            <path d="M227.231275,0 L307.218634,0 C251.047929,46.1143616 247.763796,115.659901 282.950213,162.723504 L235.074058,201.003633 C188.655733,134.886401 188.682042,67.6750039 227.231275,0 Z" id="section-6-inner" class="title" stroke="#FFFFFF" fill="#ED1B52"></path>
            <text x="112" y="70" id="section-6-outer-text" class="text-body" dominant-baseline="middle" text-anchor="middle">
                <tspan x="103" dy="1.2em">Configure environments for</tspan>
                <tspan x="103" dy="1.2em">fast and bug-free</tspan>
                <tspan x="103" dy="1.2em">continuous code integration</tspan>
                <tspan x="103" dy="1.2em">and deployment</tspan>
            </text>
            <text x="0" y="0" id="section-6-inner-text" class="text-title" dominant-baseline="middle" text-anchor="middle" transform="translate(232,95) rotate(270)">Deploy</text>
        </g>
        <g id="section-3" class="section items-eight-qty" transform="translate(727.500000, 0.498813)">
            <path d="M0.0027085917,0 L0.0027085917,206.212872 C90.6299953,213.218344 153.85766,263.653514 173.452449,357 L372.82085,335.927404 C349.787716,125.335898 181.837617,4.7825289 0.0027085917,0 Z" id="section-3-outer" class="body" stroke="#ED1B52" fill="#FFFFFF"></path>
            <path d="M0,206.002187 L0,263.967253 C52.7709532,264.501187 103.451526,299.724542 113.991423,362.97076 L173.452449,357 C155.730665,267.689856 95.533654,210.91397 0,206.002187 Z" id="section-3-inner" class="title" stroke="#FFFFFF" fill="#ED1B52"></path>
            <text x="112" y="145" id="section-3-outer-text" class="text-body" dominant-baseline="middle" text-anchor="middle">
                <tspan x="190" dy="1.2em">Develop the UI/UX</tspan>
                <tspan x="190" dy="1.2em">designs and user</tspan>
                <tspan x="190" dy="1.2em">journey and validating</tspan>
                <tspan x="190" dy="1.2em">them with the</tspan>
                <tspan x="190" dy="1.2em">target audience</tspan>
            </text>
            <text x="110" y="240" id="section-3-inner-text" class="text-title" dominant-baseline="middle" text-anchor="middle" transform="translate(190,35) rotate(45)">Design</text>
        </g>
        <g id="section-2" class="section" transform="translate(489.000000, 0.000000)">
            <rect id="section-2-outer" class="body" stroke="#ED1B52" fill="#FFFFFF" x="0.5" y="0.5" width="237" height="207"></rect>
            <rect id="section-2-inner" class="title" stroke="#FFFFFF" fill="#ED1B52" x="0.5" y="206.5" width="237" height="58"></rect>
            <text x="118" y="35" id="section-2-outer-text" class="text-body" dominant-baseline="middle" text-anchor="middle">
                <tspan x="115" dy="1.2em">Create the product</tspan>
                <tspan x="115" dy="1.2em">development roadmap with</tspan>
                <tspan x="115" dy="1.2em">milestones and business</tspan>
                <tspan x="115" dy="1.2em">reasoning</tspan>
            </text>
            <text x="118" y="240" id="section-2-inner-text" class="text-title" dominant-baseline="middle" text-anchor="middle">Plan &amp; Map</text>
        </g>
    </g>
</svg>